<svg xmlns="http://www.w3.org/2000/svg" xmlns:xlink="http://www.w3.org/1999/xlink" preserveAspectRatio="xMidYMid meet" width="500" height="200" viewBox="0 0 500 200" style="width:100%;height:100%"><defs><animateMotion repeatCount="indefinite" dur="1s" begin="0s" xlink:href="#_R_G_L_1_G" fill="freeze" keyTimes="0;0.9666667;1" path="M-95 99.25 C-95,99.25 590,99.25 590,99.25 C590,99.25 590,99.25 590,99.25 " keyPoints="0;1;1" keySplines="0.167 0.167 0.833 0.833;0 0 0 0" calcMode="spline"/><animateTransform repeatCount="indefinite" dur="1s" begin="0s" xlink:href="#_R_G_L_1_G" fill="freeze" attributeName="transform" from="0" to="0" type="rotate" additive="sum" keyTimes="0;0.1666667;0.3333333;0.5;0.6666667;0.8333333;0.9666667;1" values="0;-13;0;-13;0;-13;0;0" keySplines="0.167 0.167 0.667 1;0.167 0 0.667 1;0.167 0 0.667 1;0.167 0.167 0.667 1;0.167 0.167 0.667 1;0.167 0.167 0.667 1;0 0 0 0" calcMode="spline"/><animateTransform repeatCount="indefinite" dur="1s" begin="0s" xlink:href="#_R_G_L_1_G" fill="freeze" attributeName="transform" from="1.46923 1.55" to="1.46923 1.55" type="scale" additive="sum" keyTimes="0;1" values="1.46923 1.55;1.46923 1.55" keySplines="0 0 1 1" calcMode="spline"/><animateTransform repeatCount="indefinite" dur="1s" begin="0s" xlink:href="#_R_G_L_1_G" fill="freeze" attributeName="transform" from="-66.191 -35.968" to="-66.191 -35.968" type="translate" additive="sum" keyTimes="0;1" values="-66.191 -35.968;-66.191 -35.968" keySplines="0 0 1 1" calcMode="spline"/><animateMotion repeatCount="indefinite" dur="1s" begin="0s" xlink:href="#_R_G_L_0_G" fill="freeze" keyTimes="0;0.9666667;1" path="M-95 99.25 C-95,99.25 590,99.25 590,99.25 C590,99.25 590,99.25 590,99.25 " keyPoints="0;1;1" keySplines="0.167 0.167 0.833 0.833;0 0 0 0" calcMode="spline"/><animateTransform repeatCount="indefinite" dur="1s" begin="0s" xlink:href="#_R_G_L_0_G" fill="freeze" attributeName="transform" from="0" to="0" type="rotate" additive="sum" keyTimes="0;0.1666667;0.3333333;0.5;0.6666667;0.8333333;0.9666667;1" values="0;15;0;15;0;15;0;0" keySplines="0.167 0.167 0.667 1;0.167 0.167 0.667 1;0.167 0.167 0.667 1;0.167 0.167 0.667 1;0.167 0.167 0.667 1;0.167 0.167 0.667 1;0 0 0 0" calcMode="spline"/><animateTransform repeatCount="indefinite" dur="1s" begin="0s" xlink:href="#_R_G_L_0_G" fill="freeze" attributeName="transform" from="1.46923 1.55" to="1.46923 1.55" type="scale" additive="sum" keyTimes="0;1" values="1.46923 1.55;1.46923 1.55" keySplines="0 0 1 1" calcMode="spline"/><animateTransform repeatCount="indefinite" dur="1s" begin="0s" xlink:href="#_R_G_L_0_G" fill="freeze" attributeName="transform" from="-66.021 -35.968" to="-66.021 -35.968" type="translate" additive="sum" keyTimes="0;1" values="-66.021 -35.968;-66.021 -35.968" keySplines="0 0 1 1" calcMode="spline"/><animate attributeType="XML" attributeName="opacity" dur="1s" from="0" to="1" xlink:href="#time_group"/></defs><g id="_R_G"><g id="_R_G_L_1_G"><path id="_R_G_L_1_G_D_0_P_0" fill="#363635" fill-opacity="1" fill-rule="nonzero" d=" M12.79 3.82 C11.49,4.28 8.28,5.69 6.92,8.84 C4.79,13.78 7.69,19.77 13.4,22.23 C16.48,23.56 19.7,23.64 22.35,22.64 C25.19,21.56 28.36,21.85 31.12,23.1 C31.12,23.1 48.52,30.79 48.52,30.79 C48.52,30.79 53.89,36.37 53.89,36.37 C53.89,36.37 121.09,53.91 121.09,53.91 C121.09,53.91 125.06,52.79 125.06,52.79 C125.06,52.79 34.32,20.18 34.32,20.18 C31.07,19.01 28.73,16.18 28.14,12.78 C27.53,9.31 24.96,6.03 21.1,4.37 C18.03,3.05 15.18,3.31 13.91,3.53 C13.91,3.53 12.79,3.82 12.79,3.82z  M13.98 19.73 C9.69,17.55 7.69,12.9 9.5,9.35 C11.31,5.79 16.25,4.68 20.53,6.86 C24.81,9.05 26.82,13.7 25.01,17.25 C23.2,20.8 18.26,21.91 13.98,19.73z "/><path id="_R_G_L_1_G_D_1_P_0" stroke="#363635" stroke-linecap="round" stroke-linejoin="round" fill="none" stroke-width="0.75" stroke-opacity="1" d=" M12.79 3.82 C11.49,4.28 8.28,5.69 6.92,8.84 C4.79,13.78 7.69,19.77 13.4,22.23 C16.48,23.56 19.7,23.64 22.35,22.64 C25.19,21.56 28.36,21.85 31.12,23.1 C31.12,23.1 48.52,30.79 48.52,30.79 C48.52,30.79 53.89,36.37 53.89,36.37 C53.89,36.37 121.09,53.91 121.09,53.91 C121.09,53.91 125.06,52.79 125.06,52.79 C125.06,52.79 34.32,20.18 34.32,20.18 C31.07,19.01 28.73,16.18 28.14,12.78 C27.53,9.31 24.96,6.03 21.1,4.37 C18.03,3.05 15.18,3.31 13.91,3.53 C13.91,3.53 12.79,3.82 12.79,3.82z  M13.98 19.73 C9.69,17.55 7.69,12.9 9.5,9.35 C11.31,5.79 16.25,4.68 20.53,6.86 C24.81,9.05 26.82,13.7 25.01,17.25 C23.2,20.8 18.26,21.91 13.98,19.73z "/></g><g id="_R_G_L_0_G"><path id="_R_G_L_0_G_D_0_P_0" fill="#363635" fill-opacity="1" fill-rule="nonzero" d=" M121.09 17.3 C121.09,17.3 53.9,34.83 53.9,34.83 C53.9,34.83 48.52,40.41 48.52,40.41 C48.52,40.41 31.12,48.1 31.12,48.1 C28.36,49.35 25.18,49.64 22.35,48.57 C19.7,47.56 16.48,47.64 13.4,48.97 C7.69,51.43 4.79,57.42 6.92,62.36 C8.28,65.51 11.49,66.92 12.79,67.38 C8.88,72.33 12.63,76.41 12.63,76.41 C13.61,77.21 13.7,75.77 13.7,75.77 C10.83,71.64 13.93,67.68 13.93,67.68 C15.2,67.9 18.03,68.15 21.1,66.83 C24.96,65.17 27.53,61.89 28.14,58.42 C28.73,55.02 31.07,52.19 34.32,51.02 C34.32,51.02 125.06,18.41 125.06,18.41 C125.06,18.41 121.09,17.3 121.09,17.3z  M25.01 53.95 C26.82,57.51 24.81,62.16 20.53,64.34 C16.25,66.52 11.31,65.41 9.5,61.85 C7.69,58.3 9.69,53.65 13.98,51.47 C18.26,49.29 23.2,50.4 25.01,53.95z "/><path id="_R_G_L_0_G_D_1_P_0" stroke="#363635" stroke-linecap="round" stroke-linejoin="round" fill="none" stroke-width="0.75" stroke-opacity="1" d=" M121.09 17.3 C121.09,17.3 53.9,34.83 53.9,34.83 C53.9,34.83 48.52,40.41 48.52,40.41 C48.52,40.41 31.12,48.1 31.12,48.1 C28.36,49.35 25.18,49.64 22.35,48.57 C19.7,47.56 16.48,47.64 13.4,48.97 C7.69,51.43 4.79,57.42 6.92,62.36 C8.28,65.51 11.49,66.92 12.79,67.38 C8.88,72.33 12.63,76.41 12.63,76.41 C13.61,77.21 13.7,75.77 13.7,75.77 C10.83,71.64 13.93,67.68 13.93,67.68 C15.2,67.9 18.03,68.15 21.1,66.83 C24.96,65.17 27.53,61.89 28.14,58.42 C28.73,55.02 31.07,52.19 34.32,51.02 C34.32,51.02 125.06,18.41 125.06,18.41 C125.06,18.41 121.09,17.3 121.09,17.3z  M25.01 53.95 C26.82,57.51 24.81,62.16 20.53,64.34 C16.25,66.52 11.31,65.41 9.5,61.85 C7.69,58.3 9.69,53.65 13.98,51.47 C18.26,49.29 23.2,50.4 25.01,53.95z "/><path id="_R_G_L_0_G_D_2_P_0" fill="#ffffff" fill-opacity="1" fill-rule="nonzero" d=" M66.28 36.41 C65.93,36.41 65.64,36.13 65.64,35.77 C65.64,35.42 65.93,35.13 66.28,35.13 C66.64,35.13 66.92,35.42 66.92,35.77 C66.92,36.13 66.64,36.41 66.28,36.41z "/><path id="_R_G_L_0_G_D_3_P_0" stroke="#ffffff" stroke-linecap="round" stroke-linejoin="round" fill="none" stroke-width="0.75" stroke-opacity="1" d=" M66.28 36.41 C65.93,36.41 65.64,36.13 65.64,35.77 C65.64,35.42 65.93,35.13 66.28,35.13 C66.64,35.13 66.92,35.42 66.92,35.77 C66.92,36.13 66.64,36.41 66.28,36.41z "/></g></g><g id="time_group"/></svg>